<mxfile host="65bd71144e">
    <diagram id="K7b3S6ei28q-WkfmCmta" name="Page-1">
        <mxGraphModel dx="1216" dy="784" grid="0" gridSize="10" guides="1" tooltips="1" connect="1" arrows="1" fold="1" page="1" pageScale="1" pageWidth="850" pageHeight="1100" background="#ffffff" math="0" shadow="0">
            <root>
                <mxCell id="0"/>
                <mxCell id="1" parent="0"/>
                <mxCell id="2" value="Student" style="shape=umlActor;verticalLabelPosition=bottom;verticalAlign=top;html=1;outlineConnect=0;strokeColor=#000000;fontColor=#000000;" parent="1" vertex="1">
                    <mxGeometry x="120" y="160" width="30" height="60" as="geometry"/>
                </mxCell>
                <mxCell id="3" value="Faculty" style="shape=umlActor;verticalLabelPosition=bottom;verticalAlign=top;html=1;outlineConnect=0;strokeColor=#000000;fontColor=#000000;" parent="1" vertex="1">
                    <mxGeometry x="120" y="320" width="30" height="60" as="geometry"/>
                </mxCell>
                <mxCell id="4" value="Admin" style="shape=umlActor;verticalLabelPosition=bottom;verticalAlign=top;html=1;outlineConnect=0;strokeColor=#000000;fontColor=#000000;" parent="1" vertex="1">
                    <mxGeometry x="120" y="480" width="30" height="60" as="geometry"/>
                </mxCell>
                <mxCell id="8" value="" style="rounded=0;whiteSpace=wrap;html=1;strokeColor=#000000;fontColor=#000000;fillColor=#F7F7F7;" parent="1" vertex="1">
                    <mxGeometry x="200" y="80" width="460" height="520" as="geometry"/>
                </mxCell>
                <mxCell id="10" value="&lt;h1 style=&quot;font-size: 16px;&quot;&gt;University Academic Course Registration System&lt;/h1&gt;" style="text;html=1;strokeColor=#000000;fillColor=none;spacing=5;spacingTop=-20;whiteSpace=wrap;overflow=hidden;rounded=0;align=center;fontColor=#000000;" parent="1" vertex="1">
                    <mxGeometry x="230" y="90" width="390" height="20" as="geometry"/>
                </mxCell>
                <mxCell id="11" value="&lt;font style=&quot;font-size: 15px;&quot;&gt;Register for a course&lt;/font&gt;" style="ellipse;whiteSpace=wrap;html=1;fontSize=16;strokeColor=#000000;fontColor=#000000;" parent="1" vertex="1">
                    <mxGeometry x="325" y="120" width="200" height="30" as="geometry"/>
                </mxCell>
                <mxCell id="12" value="&lt;font style=&quot;font-size: 15px;&quot;&gt;View course schedules&lt;/font&gt;" style="ellipse;whiteSpace=wrap;html=1;fontSize=16;strokeColor=#000000;fontColor=#000000;" parent="1" vertex="1">
                    <mxGeometry x="325" y="180" width="200" height="30" as="geometry"/>
                </mxCell>
                <mxCell id="13" value="&lt;font style=&quot;font-size: 15px;&quot;&gt;Drop a course&lt;/font&gt;" style="ellipse;whiteSpace=wrap;html=1;fontSize=16;strokeColor=#000000;fontColor=#000000;" parent="1" vertex="1">
                    <mxGeometry x="347" y="250" width="157" height="30" as="geometry"/>
                </mxCell>
                <mxCell id="14" value="&lt;font style=&quot;font-size: 15px;&quot;&gt;Add a course to the catalog&lt;/font&gt;" style="ellipse;whiteSpace=wrap;html=1;fontSize=16;strokeColor=#000000;fontColor=#000000;" parent="1" vertex="1">
                    <mxGeometry x="310" y="331.25" width="230" height="37.5" as="geometry"/>
                </mxCell>
                <mxCell id="15" value="&lt;font style=&quot;font-size: 14px;&quot;&gt;Approve course request&lt;/font&gt;" style="ellipse;whiteSpace=wrap;html=1;fontSize=16;strokeColor=#000000;fontColor=#000000;" parent="1" vertex="1">
                    <mxGeometry x="315" y="450" width="220" height="40" as="geometry"/>
                </mxCell>
                <mxCell id="16" value="&lt;font style=&quot;font-size: 15px;&quot;&gt;Generate reports&lt;/font&gt;" style="ellipse;whiteSpace=wrap;html=1;fontSize=16;strokeColor=#000000;fontColor=#000000;" parent="1" vertex="1">
                    <mxGeometry x="333" y="520" width="185" height="35" as="geometry"/>
                </mxCell>
                <mxCell id="17" value="" style="endArrow=classic;html=1;fontSize=15;entryX=0.047;entryY=0.815;entryDx=0;entryDy=0;entryPerimeter=0;strokeColor=#000000;fontColor=#000000;" parent="1" target="15" edge="1">
                    <mxGeometry width="50" height="50" relative="1" as="geometry">
                        <mxPoint x="160" y="510" as="sourcePoint"/>
                        <mxPoint x="210" y="460" as="targetPoint"/>
                    </mxGeometry>
                </mxCell>
                <mxCell id="18" value="" style="endArrow=classic;html=1;fontSize=15;entryX=0.019;entryY=0.326;entryDx=0;entryDy=0;entryPerimeter=0;strokeColor=#000000;fontColor=#000000;" parent="1" target="16" edge="1">
                    <mxGeometry width="50" height="50" relative="1" as="geometry">
                        <mxPoint x="159.66" y="520" as="sourcePoint"/>
                        <mxPoint x="324.99999999999994" y="492.5999999999999" as="targetPoint"/>
                    </mxGeometry>
                </mxCell>
                <mxCell id="19" value="" style="endArrow=classic;html=1;fontSize=15;entryX=0;entryY=0.5;entryDx=0;entryDy=0;strokeColor=#000000;fontColor=#000000;" parent="1" target="14" edge="1">
                    <mxGeometry width="50" height="50" relative="1" as="geometry">
                        <mxPoint x="160.00000000000009" y="350" as="sourcePoint"/>
                        <mxPoint x="336.85499999999985" y="361.4100000000001" as="targetPoint"/>
                    </mxGeometry>
                </mxCell>
                <mxCell id="20" value="" style="endArrow=classic;html=1;fontSize=15;entryX=0;entryY=0.5;entryDx=0;entryDy=0;strokeColor=#000000;fontColor=#000000;" parent="1" target="12" edge="1">
                    <mxGeometry width="50" height="50" relative="1" as="geometry">
                        <mxPoint x="160" y="194.6" as="sourcePoint"/>
                        <mxPoint x="309.9999999999991" y="194.6" as="targetPoint"/>
                    </mxGeometry>
                </mxCell>
                <mxCell id="21" value="" style="curved=1;endArrow=classic;html=1;fontSize=15;entryX=0;entryY=0.5;entryDx=0;entryDy=0;strokeColor=#000000;fontColor=#000000;" parent="1" target="11" edge="1">
                    <mxGeometry width="50" height="50" relative="1" as="geometry">
                        <mxPoint x="160" y="180" as="sourcePoint"/>
                        <mxPoint x="210" y="130" as="targetPoint"/>
                        <Array as="points">
                            <mxPoint x="260" y="140"/>
                        </Array>
                    </mxGeometry>
                </mxCell>
                <mxCell id="22" value="" style="curved=1;endArrow=classic;html=1;fontSize=15;entryX=0;entryY=0.5;entryDx=0;entryDy=0;strokeColor=#000000;fontColor=#000000;" parent="1" target="13" edge="1">
                    <mxGeometry width="50" height="50" relative="1" as="geometry">
                        <mxPoint x="160" y="210" as="sourcePoint"/>
                        <mxPoint x="325" y="165" as="targetPoint"/>
                        <Array as="points">
                            <mxPoint x="190" y="230"/>
                            <mxPoint x="250" y="250"/>
                        </Array>
                    </mxGeometry>
                </mxCell>
                <mxCell id="23" value="&lt;font style=&quot;font-size: 15px;&quot;&gt;Register for a course&lt;/font&gt;" style="ellipse;whiteSpace=wrap;html=1;fontSize=16;strokeColor=#000000;fontColor=#000000;fillColor=#E3E3E3;" vertex="1" parent="1">
                    <mxGeometry x="323" y="120" width="200" height="30" as="geometry"/>
                </mxCell>
                <mxCell id="24" value="&lt;font style=&quot;font-size: 15px;&quot;&gt;View course schedules&lt;/font&gt;" style="ellipse;whiteSpace=wrap;html=1;fontSize=16;strokeColor=#000000;fontColor=#000000;fillColor=#E3E3E3;" vertex="1" parent="1">
                    <mxGeometry x="323" y="180" width="200" height="30" as="geometry"/>
                </mxCell>
                <mxCell id="26" value="&lt;font style=&quot;font-size: 15px;&quot;&gt;Drop a course&lt;/font&gt;" style="ellipse;whiteSpace=wrap;html=1;fontSize=16;strokeColor=#000000;fontColor=#000000;fillColor=#E3E3E3;" vertex="1" parent="1">
                    <mxGeometry x="345" y="250" width="157" height="30" as="geometry"/>
                </mxCell>
                <mxCell id="27" value="&lt;font style=&quot;font-size: 15px;&quot;&gt;Add a course to the catalog&lt;/font&gt;" style="ellipse;whiteSpace=wrap;html=1;fontSize=16;strokeColor=#000000;fontColor=#000000;fillColor=#E3E3E3;" vertex="1" parent="1">
                    <mxGeometry x="308" y="331.25" width="230" height="37.5" as="geometry"/>
                </mxCell>
                <mxCell id="28" value="&lt;font style=&quot;font-size: 14px;&quot;&gt;Approve course request&lt;/font&gt;" style="ellipse;whiteSpace=wrap;html=1;fontSize=16;strokeColor=#000000;fontColor=#000000;fillColor=#E3E3E3;" vertex="1" parent="1">
                    <mxGeometry x="313" y="450" width="220" height="40" as="geometry"/>
                </mxCell>
                <mxCell id="29" value="&lt;font style=&quot;font-size: 15px;&quot;&gt;Generate reports&lt;/font&gt;" style="ellipse;whiteSpace=wrap;html=1;fontSize=16;strokeColor=#000000;fontColor=#000000;fillColor=#E3E3E3;" vertex="1" parent="1">
                    <mxGeometry x="331" y="520" width="185" height="35" as="geometry"/>
                </mxCell>
            </root>
        </mxGraphModel>
    </diagram>
</mxfile>